<?xml version="1.0" encoding="iso-8859-1"?>
<!-- Generator: Adobe Illustrator 19.0.0, SVG Export Plug-In . SVG Version: 6.00 Build 0)  -->
<svg version="1.1" id="Layer_1" xmlns="http://www.w3.org/2000/svg" xmlns:xlink="http://www.w3.org/1999/xlink" x="0px" y="0px"
	 viewBox="0 0 512.001 512.001" style="enable-background:new 0 0 512.001 512.001;" xml:space="preserve">
<path style="fill:#003DA8;" d="M507.569,111.327c-7.433-12.924-22.52-19.476-44.847-19.476c-0.16,0-0.322,0-0.483,0.001
	c-14.687,0.062-32.769,2.893-53.853,8.405l4.84,18.042l18.337,8.726c35.157-7.266,47.58-2.193,48.809-0.058
	c1.227,2.135-0.633,15.421-24.592,42.151c4.789,10.975,8.611,22.175,11.479,33.497c15.408-15.492,26.969-29.731,34.406-42.416
	C513.056,140.766,515.043,124.322,507.569,111.327z"/>
<path style="fill:#2F91ED;" d="M80.44,384.976c-35.16,7.268-47.583,2.191-48.809,0.056c-1.228-2.134,0.632-15.42,24.592-42.151
	l3.161-22.822l-14.64-10.674c-15.409,15.492-26.969,29.731-34.407,42.417c-11.392,19.435-13.378,35.878-5.905,48.872
	c7.433,12.926,22.518,19.478,44.843,19.478c0.121,0,0.245-0.001,0.368-0.001c14.707-0.047,32.83-2.879,53.973-8.406
	C95.272,403.572,87.517,394.634,80.44,384.976z"/>
<path style="fill:#FF8E00;" d="M444.848,147.397c-40.261-70.008-113.5-109.209-188.847-109.28l-21.472,222.999l21.472,212.767
	c36.905,0.035,74.314-9.316,108.603-29.036C468.901,384.868,504.828,251.694,444.848,147.397z"/>
<path style="fill:#FFBA00;" d="M147.397,67.153C43.099,127.133,7.173,260.307,67.153,364.604
	c40.261,70.008,113.5,109.21,188.847,109.28V38.117C219.096,38.083,181.687,47.433,147.397,67.153z"/>
<path style="fill:#FDE09C;" d="M383.374,182.75c-19.566-34.022-51.21-58.389-89.102-68.611c-25.429-6.861-52.169-6.797-77.33,0.178
	l-8.381-30.235c30.572-8.475,63.037-8.555,93.884-0.235c45.984,12.405,84.386,41.975,108.129,83.262L383.374,182.75z"/>
<path style="fill:#003DA8;" d="M458.427,211.241c3.077-2.918,6.01-5.79,8.83-8.624l3.14-22.44l-14.619-11.058
	c-5.208,5.812-11.444,12.247-18.939,19.353c-37.368,35.431-91.749,74.455-153.324,110.055l2.814,19.177l20.127,3.765
	C367.137,285.807,420.82,246.9,458.427,211.241z"/>
<path style="fill:#2F91ED;" d="M283.515,298.528c-0.766,0.442-1.526,0.887-2.294,1.328c-62.52,35.954-124.506,63.828-174.538,78.486
	c-9.908,2.903-18.603,5.055-26.244,6.634l1.352,17.879l21.824,8.89c3.866-1.011,7.822-2.101,11.889-3.292
	c52.343-15.334,116.75-44.242,181.357-81.397c3.219-1.851,6.414-3.715,9.596-5.584L283.515,298.528z"/>
<g>
</g>
<g>
</g>
<g>
</g>
<g>
</g>
<g>
</g>
<g>
</g>
<g>
</g>
<g>
</g>
<g>
</g>
<g>
</g>
<g>
</g>
<g>
</g>
<g>
</g>
<g>
</g>
<g>
</g>
</svg>
